<?xml version="1.0" encoding="UTF-8"?>
<svg id="Layer_1" xmlns="http://www.w3.org/2000/svg" version="1.1" viewBox="0 0 240.9 56.7">
  <!-- Generator: Adobe Illustrator 29.0.1, SVG Export Plug-In . SVG Version: 2.1.0 Build 192)  -->
  <defs>
    <style>
      .st0 {
        fill: #007b6a;
      }

      .st1 {
        fill: #fff;
      }

      .st2 {
        fill: #ee4097;
      }

      .st3 {
        fill: #128a43;
      }
    </style>
  </defs>
  <rect class="st3" x="183.3" y="4.5" width="11.4" height="16.1"/>
  <g>
    <path class="st1" d="M128.6,24.4h-4V.7h10.9c1.6,0,2.9.6,4,1.7,1.1,1.1,1.7,2.5,1.7,4s-.6,2.9-1.7,4-2.5,1.7-4,1.7h-8.5v-3.8h8.5c.5,0,1-.2,1.3-.5s.5-.8.5-1.3-.2-1-.5-1.3c-.4-.4-.8-.5-1.3-.5h-6.9v19.9Z"/>
    <path class="st1" d="M157.6.7v3.8h-10.8v16.1h10.8v3.8h-14.6V.7h14.6ZM157.6,14.3h-13v-3.8h13v3.8Z"/>
    <path class="st1" d="M165,24.4h-3.8V.7h10.7c1.6,0,2.9.6,4,1.7,1.1,1.1,1.7,2.5,1.7,4s-.6,2.9-1.7,4-2.5,1.7-4,1.7h-7.9v-3.8h7.9c.5,0,1-.2,1.3-.5s.5-.8.5-1.3-.2-1-.5-1.3c-.4-.4-.8-.5-1.3-.5h-6.9v19.9Z"/>
    <path class="st1" d="M194.7.7v3.8h-11.4v16.1h11.4v3.8h-15.2V.7h15.2ZM239.6,14.3h-53.2v-3.8h53.2v3.8Z"/>
  </g>
  <g>
    <path class="st1" d="M211.4,16.4v1.6h-4.4v6.4h-1.6v-8h6ZM211.4,21.2h-4.7v-1.6h4.7v1.6Z"/>
    <path class="st1" d="M218,24.4l-2.6-4.8h2.8c.2,0,.4,0,.6-.2s.2-.3.2-.6,0-.4-.2-.6c-.2-.2-.3-.2-.6-.2h-4v6.4h-1.6v-8h5.6c.7,0,1.2.2,1.7.7.5.5.7,1,.7,1.7s-.2,1.2-.7,1.7-1,.7-1.7.7h-.4l1.8,3.2h-1.6Z"/>
    <path class="st1" d="M225.1,24.4c-1.1,0-2.1-.4-2.8-1.2-.8-.8-1.2-1.7-1.2-2.8s.4-2.1,1.2-2.8,1.7-1.2,2.8-1.2,2.1.4,2.8,1.2c.8.8,1.2,1.7,1.2,2.8s-.4,2.1-1.2,2.8-1.7,1.2-2.8,1.2ZM225.1,22.8c.7,0,1.2-.2,1.7-.7s.7-1,.7-1.7-.2-1.2-.7-1.7c-.5-.5-1-.7-1.7-.7s-1.2.2-1.7.7-.7,1-.7,1.7.2,1.2.7,1.7c.5.5,1,.7,1.7.7Z"/>
    <path class="st1" d="M231.6,19.6v4.8h-1.6v-8h1.6l3.2,6,3.2-6h1.6v8h-1.6v-4.8l-2.4,4.8h-1.6l-2.4-4.8Z"/>
  </g>
  <g>
    <g>
      <path class="st1" d="M179.3,48.3h-3.8v-19.2h13.4c1.6,0,3,.6,4.1,1.7,1.1,1.1,1.7,2.5,1.7,4.1s-.6,3-1.7,4.1-2.5,1.7-4.1,1.7h-.8l8.5,15.3h-3.8l-10.5-19.2h6.7c.5,0,1-.2,1.4-.6s.6-.8.6-1.4-.2-1-.6-1.4c-.4-.4-.8-.6-1.4-.6h-9.6v15.3Z"/>
      <path class="st1" d="M140.1,37.2l-5.8,12.1-9.6-20.1h4.3l5.3,11,3.6-7.5,2.2-4.5,2.2,4.5,3.6,7.5,5.3-11h4.3l-9.6,20.1-5.8-12.1Z"/>
      <path class="st1" d="M163.7,48.3c-2.7,0-4.9-.9-6.8-2.8-1.9-1.9-2.8-4.1-2.8-6.8s.9-4.9,2.8-6.8,4.1-2.8,6.8-2.8,4.9.9,6.8,2.8c1.9,1.9,2.8,4.1,2.8,6.8s-.9,4.9-2.8,6.8-4.1,2.8-6.8,2.8ZM163.7,44.5c1.6,0,3-.6,4.1-1.7s1.7-2.5,1.7-4.1-.6-3-1.7-4.1c-1.1-1.1-2.5-1.7-4.1-1.7s-3,.6-4.1,1.7-1.7,2.5-1.7,4.1.6,3,1.7,4.1c1.1,1.1,2.5,1.7,4.1,1.7Z"/>
      <path class="st1" d="M200.5,44.5h15.3v3.8h-19.2v-19.2h3.8v15.3Z"/>
      <path class="st1" d="M231.4,48.3h-13.4v-19.2h13.4c2.7,0,4.9.9,6.8,2.8,1.9,1.9,2.8,4.1,2.8,6.8s-.9,4.9-2.8,6.8-4.1,2.8-6.8,2.8ZM221.8,44.5h9.6c1.6,0,3-.6,4.1-1.7s1.7-2.5,1.7-4.1-.6-3-1.7-4.1c-1.1-1.1-2.5-1.7-4.1-1.7h-9.6v11.5Z"/>
    </g>
    <polygon class="st0" points="200.5 29.1 200.5 44.5 215.8 44.5 200.5 29.1"/>
  </g>
  <circle class="st2" cx="52.6" cy="39.4" r="9.3"/>
  <path class="st1" d="M34.5,49.3H0v-4.1h34.5c.6,0,1.1-.2,1.5-.6s.6-.9.6-1.5-.2-1.1-.6-1.5c-.4-.4-.9-.6-1.5-.6h-8.2c-1.7,0-3.1-.6-4.3-1.8-1.2-1.2-1.8-2.6-1.8-4.3s.6-3.1,1.8-4.3,2.6-1.8,4.3-1.8h12.3v4.1h-12.3c-.6,0-1.1.2-1.5.6s-.6.9-.6,1.5.2,1.1.6,1.5c.4.4.9.6,1.5.6h8.2c1.7,0,3.1.6,4.3,1.8,1.2,1.2,1.8,2.6,1.8,4.3s-.6,3.1-1.8,4.3-2.6,1.8-4.3,1.8Z"/>
  <path class="st1" d="M65,39.1v-10.2h4.1v10.2c0,1.7.6,3.1,1.8,4.3,1.2,1.2,2.6,1.8,4.3,1.8s3.1-.6,4.3-1.8,1.8-2.6,1.8-4.3v-19.6h4.1v19.6c0,2.8-1,5.2-3,7.2s-4.4,3-7.2,3-5.2-1-7.2-3c-2-2-3-4.4-3-7.2Z"/>
  <path class="st1" d="M92.4,49.3h-4.1v-20.4h4.1v20.4Z"/>
  <path class="st1" d="M109.9,49.3h-14.3v-20.4h14.3c2.8,0,5.2,1,7.2,3,2,2,3,4.4,3,7.2s-1,5.2-3,7.2-4.4,3-7.2,3ZM99.7,45.3h10.2c1.7,0,3.1-.6,4.3-1.8s1.8-2.6,1.8-4.3-.6-3.1-1.8-4.3c-1.2-1.2-2.6-1.8-4.3-1.8h-10.2v12.3Z"/>
  <path class="st1" d="M58.5,53.4l-2.6-4.6c-1,.3-2.2.5-3.4.5-2.8,0-5.2-1-7.2-3-2-2-3-4.4-3-7.2s1-5.2,3-7.2,4.4-3,7.2-3,5.2,1,7.2,3c2,2,3,4.4,3,7.2s-1,5.2-3,7.2-.5.5-.8.7l3.5,6.4h-4.1ZM53.9,45.1l-3.4-6h4.1l2.4,4.3c1.1-1.2,1.7-2.6,1.7-4.3s-.6-3.1-1.8-4.3c-1.2-1.2-2.6-1.8-4.3-1.8s-3.1.6-4.3,1.8-1.8,2.6-1.8,4.3.6,3.1,1.8,4.3c1.2,1.2,2.6,1.8,4.3,1.8s.9,0,1.3-.1Z"/>
</svg>